# xmcd
#
# Track frame offsets:
#	225
#	27133
#	49770
#	74495
#	93849
#	116673
#	137698
#	160073
#	184862
#	210877
#	233994
#	254075
#
# Disc length: 3652 seconds
#
# Revision: 6
# Processed by: cddbd v1.5.2PL0 Copyright (c) Steve Scherf et al.
# Submitted via: EasyCDDAExtractor 16.0.6.1
#
DISCID=a40e410c
DTITLE=齐秦 - 我拿什么爱妳
DYEAR=1998
DGENRE=Pop
TTITLE0=让我让你崩溃
TTITLE1=我拿什么爱妳
TTITLE2=海和天空
TTITLE3=朦胧
TTITLE4=结局
TTITLE5=末日前一秒
TTITLE6=猫眼看人
TTITLE7=缺口
TTITLE8=和爱无关的故事
TTITLE9=多少
TTITLE10=流浪者之歌
TTITLE11=烟囱
EXTD=YEAR: 1998
EXTT0=
EXTT1=
EXTT2=
EXTT3=
EXTT4=
EXTT5=
EXTT6=
EXTT7=
EXTT8=
EXTT9=
EXTT10=
EXTT11=
PLAYORDER=
